# xmcd
#
# Track frame offsets:
#	150
#	37412
#	52425
#	75795
#	94492
#	121375
#	131925
#	159937
#	177152
#	196102
#	225017
#	249290
#	266380
#
# Disc length: 3873
#
# Revision: 6
# Processed by: cddbd v1.5.1PL0 Copyright (c) Steve Scherf et al.
# Submitted via: ExactAudioCopy v0.95a5
# Normalized: r5:DSETVAR1
#
DISCID=a60f1f0d
DTITLE=Various Artist - Antone's Tenth Anniversary Anthology- Vol. 1
DYEAR=1986
DGENRE=Blues
TTITLE0=Snooky Pryor - How'd You Learn To Shake It Like That
TTITLE1=Eddie Taylor - If You Don't Want Me Baby
TTITLE2=James Cotton - Cotton Crop Blues
TTITLE3=Sunnyland Slim - Built Up From the Ground
TTITLE4=Albert Collins - Cold Cold Feeling
TTITLE5=Jimmy Rogers - Walkin' By Myself
TTITLE6=James Cotton - Sad Letter Blues
TTITLE7=Eddie Taylor - Bad Boy
TTITLE8=Buddy Guy - Look On Yonders Wall
TTITLE9=Buddy Guy - Things I Used To Do
TTITLE10=Pinetop Perkins - Caldonia
TTITLE11=Otis Rush - Double Trouble
TTITLE12=Jimmy Rogers - You're Sweet
EXTD=LABEL =Antone's Records and Tapes\nID =ANT0004CD\nUPC =04989-10004-23\nCOPYRIGHT =1986
EXTT0=
EXTT1=
EXTT2=
EXTT3=
EXTT4=
EXTT5=
EXTT6=
EXTT7=
EXTT8=
EXTT9=
EXTT10=
EXTT11=
EXTT12=
PLAYORDER=
